<?xml version="1.0" encoding="iso-8859-1"?>
<!-- Generator: Adobe Illustrator 19.0.0, SVG Export Plug-In . SVG Version: 6.00 Build 0)  -->
<svg version="1.1" id="Capa_1" xmlns="http://www.w3.org/2000/svg" xmlns:xlink="http://www.w3.org/1999/xlink" x="0px" y="0px"
	 viewBox="0 0 470 470" style="enable-background:new 0 0 470 470;" xml:space="preserve">
<g>
	<path d="M385.463,72.447c0-4.142-3.357-7.5-7.5-7.5h-70c-4.143,0-7.5,3.358-7.5,7.5s3.357,7.5,7.5,7.5h70
		C382.106,79.947,385.463,76.589,385.463,72.447z"/>
	<path d="M302.306,56.514h75.657c4.143,0,7.5-3.358,7.5-7.5V22.883C385.463,10.265,375.198,0,362.58,0h-57.306
		c-4.143,0-7.5,3.358-7.5,7.5s3.357,7.5,7.5,7.5h57.306c4.347,0,7.883,3.536,7.883,7.883v18.631h-68.157c-4.143,0-7.5,3.358-7.5,7.5
		S298.163,56.514,302.306,56.514z"/>
	<path d="M407.239,130.212l-27.929-22.057V95.88c0-4.142-3.357-7.5-7.5-7.5s-7.5,3.358-7.5,7.5v15.909
		c0,2.295,1.051,4.463,2.852,5.886l30.781,24.309c4.825,3.81,9.22,12.88,9.22,19.03v52.797h-62.5c-4.143,0-7.5,3.358-7.5,7.5
		s3.357,7.5,7.5,7.5h62.5v45.297h-62.5c-4.143,0-7.5,3.358-7.5,7.5s3.357,7.5,7.5,7.5h62.5v105.594h-62.5
		c-4.143,0-7.5,3.358-7.5,7.5s3.357,7.5,7.5,7.5h62.5v22.032c0,12.829-10.437,23.266-23.266,23.266h-47.763
		c-4.143,0-7.5,3.358-7.5,7.5s3.357,7.5,7.5,7.5h47.763c21.1,0,38.266-17.166,38.266-38.266v-270.72
		C422.162,150.171,415.746,136.929,407.239,130.212z"/>
	<path d="M344.662,349.406h40c4.143,0,7.5-3.358,7.5-7.5s-3.357-7.5-7.5-7.5h-40c-4.143,0-7.5,3.358-7.5,7.5
		S340.52,349.406,344.662,349.406z"/>
	<path d="M344.662,168.514h40c4.143,0,7.5-3.358,7.5-7.5s-3.357-7.5-7.5-7.5h-40c-4.143,0-7.5,3.358-7.5,7.5
		S340.52,168.514,344.662,168.514z"/>
	<path d="M92.038,79.947h70c4.142,0,7.5-3.358,7.5-7.5s-3.358-7.5-7.5-7.5h-70c-4.142,0-7.5,3.358-7.5,7.5
		S87.896,79.947,92.038,79.947z"/>
	<path d="M92.038,56.514h75.657c4.142,0,7.5-3.358,7.5-7.5s-3.358-7.5-7.5-7.5H99.538V22.883c0-4.347,3.536-7.883,7.883-7.883
		h57.305c4.142,0,7.5-3.358,7.5-7.5s-3.358-7.5-7.5-7.5h-57.305C94.803,0,84.538,10.265,84.538,22.883v26.131
		C84.538,53.156,87.896,56.514,92.038,56.514z"/>
	<path d="M133.866,455H86.103c-12.829,0-23.266-10.437-23.266-23.266v-82.329h62.5c4.142,0,7.5-3.358,7.5-7.5s-3.358-7.5-7.5-7.5
		h-62.5V228.811h62.5c4.142,0,7.5-3.358,7.5-7.5s-3.358-7.5-7.5-7.5h-62.5v-52.797c0-6.149,4.395-15.22,9.221-19.031l30.781-24.308
		c1.801-1.422,2.852-3.591,2.852-5.886V95.88c0-4.142-3.358-7.5-7.5-7.5s-7.5,3.358-7.5,7.5v12.275l-27.929,22.056
		c-8.508,6.719-14.924,19.961-14.924,30.803v270.72c0,21.1,17.166,38.266,38.266,38.266h47.763c4.142,0,7.5-3.358,7.5-7.5
		S138.008,455,133.866,455z"/>
	<path d="M125.338,394.703h-40c-4.142,0-7.5,3.358-7.5,7.5s3.358,7.5,7.5,7.5h40c4.142,0,7.5-3.358,7.5-7.5
		S129.48,394.703,125.338,394.703z"/>
	<path d="M125.338,274.108h-40c-4.142,0-7.5,3.358-7.5,7.5s3.358,7.5,7.5,7.5h40c4.142,0,7.5-3.358,7.5-7.5
		S129.48,274.108,125.338,274.108z"/>
	<path d="M85.338,153.514c-4.142,0-7.5,3.358-7.5,7.5s3.358,7.5,7.5,7.5h40c4.142,0,7.5-3.358,7.5-7.5s-3.358-7.5-7.5-7.5H85.338z"
		/>
	<path d="M192.038,79.947h85.925c4.143,0,7.5-3.358,7.5-7.5s-3.357-7.5-7.5-7.5h-85.925c-4.142,0-7.5,3.358-7.5,7.5
		S187.896,79.947,192.038,79.947z"/>
	<path d="M192.038,56.514h85.925c4.143,0,7.5-3.358,7.5-7.5V22.883C285.463,10.265,275.198,0,262.58,0h-55.16
		c-12.618,0-22.883,10.265-22.883,22.883v26.131C184.538,53.156,187.896,56.514,192.038,56.514z M199.538,22.883
		c0-4.347,3.536-7.883,7.883-7.883h55.16c4.347,0,7.883,3.536,7.883,7.883v18.631h-70.925V22.883z"/>
	<path d="M307.239,130.212l-27.929-22.057V95.88c0-4.142-3.357-7.5-7.5-7.5s-7.5,3.358-7.5,7.5v15.909
		c0,2.295,1.051,4.463,2.852,5.886l30.781,24.309c3.065,2.42,5.951,6.962,7.653,11.53h-141.19c1.702-4.568,4.588-9.11,7.654-11.531
		l30.781-24.308c1.801-1.422,2.852-3.591,2.852-5.886V95.88c0-4.142-3.358-7.5-7.5-7.5s-7.5,3.358-7.5,7.5v12.275l-27.929,22.056
		c-8.508,6.719-14.924,19.961-14.924,30.803v270.72c0,21.1,17.166,38.266,38.266,38.266h97.793c21.1,0,38.266-17.166,38.266-38.266
		v-270.72C322.162,150.171,315.746,136.929,307.239,130.212z M185.338,228.811h121.825v45.297H162.838V168.514h144.325v45.297
		H185.338c-4.142,0-7.5,3.358-7.5,7.5S181.196,228.811,185.338,228.811z M162.838,289.108h144.325v45.297H162.838V289.108z
		 M283.897,455h-97.793c-12.829,0-23.266-10.437-23.266-23.266v-22.032h22.5c4.142,0,7.5-3.358,7.5-7.5s-3.358-7.5-7.5-7.5h-22.5
		v-45.297h144.325v82.329C307.162,444.563,296.726,455,283.897,455z"/>
	<path d="M284.662,394.703h-69.325c-4.142,0-7.5,3.358-7.5,7.5s3.358,7.5,7.5,7.5h69.325c4.143,0,7.5-3.358,7.5-7.5
		S288.805,394.703,284.662,394.703z"/>
</g>
<g>
</g>
<g>
</g>
<g>
</g>
<g>
</g>
<g>
</g>
<g>
</g>
<g>
</g>
<g>
</g>
<g>
</g>
<g>
</g>
<g>
</g>
<g>
</g>
<g>
</g>
<g>
</g>
<g>
</g>
</svg>
