<?xml version="1.0" encoding="iso-8859-1"?>
<!-- Generator: Adobe Illustrator 16.0.0, SVG Export Plug-In . SVG Version: 6.00 Build 0)  -->
<!DOCTYPE svg PUBLIC "-//W3C//DTD SVG 1.1//EN" "http://www.w3.org/Graphics/SVG/1.1/DTD/svg11.dtd">
<svg version="1.1" id="Capa_1" xmlns="http://www.w3.org/2000/svg" xmlns:xlink="http://www.w3.org/1999/xlink" x="0px" y="0px"
	 width="50px" height="50px" viewBox="0 0 31.098 31.098" style="enable-background:new 0 0 31.098 31.098;"
	 xml:space="preserve">
<g>
	<g>
		<path d="M24.559,16.863c0,0,0.216-1.418,0.474-2.911l0.764,5.553l1.644-0.151l-0.861-7.791c0.093-0.68,0.215-1.712,0.261-2.778
			c0.079-1.82,0.354-7.594-4.888-7.594c-5.236,0-5.094,4.821-5.094,4.821l0.382,6.257l-0.729,7.013l1.643,0.149l0.652-5.041
			c0.396,1.339,0.771,2.574,0.771,2.574l-1.063,6.443h2.32v6.648c-0.83,0.014-1.343,0.145-1.343,0.517
			c0,0.395,0.809,0.521,0.809,0.521h0.534h1.281h0.062c0,0,0-0.276,0-0.491c0-0.078-0.021-0.152-0.062-0.22V23.41h0.593l0.566,3.451
			l-0.607,3.432c-0.104,0.089-0.146,0.197-0.146,0.314c0,0.213,0,0.49,0,0.49h0.06l0,0h1.294l0,0H24.4c0,0,0.809-0.127,0.809-0.521
			c0-0.358-0.479-0.49-1.251-0.514l0.5-3.199l-0.478-3.452h2.065L24.559,16.863z M23.152,9.845v1.471h0.007l0.528,0.251
			l-1.659,2.988l-1.623-3.081l0.414-0.104V9.795c-1.696-0.533-2.936-2.099-2.936-3.97c0-0.141,0.028-0.275,0.042-0.413
			c1.155-0.079,5.049-0.438,5.149-1.704c0.372,0.687,2.338,2.411,3.135,2.543C26.031,7.988,24.797,9.4,23.152,9.845z"/>
		<path d="M14.814,29.038c-1.058-0.229-1.634-0.354-1.634-0.354h-0.282l0.769-4.067l-0.769-3.183v-0.686v-0.926h0.263l0.001-1.687
			l1.463-0.024l-0.18-7.741h-2.984c0,0-0.558,1.711-2.091,1.802c-1.534,0.089-2.115-1.802-2.115-1.802h-0.89H5.361H4.586
			l-0.227,7.935h1.398l0.073,1.518h0.213v0.926v0.686v7.25H5.764c0,0-0.57,0.104-1.634,0.354c-1.062,0.25,0,1.507,0,1.507h4.83
			v-1.678v-0.183v-7.25h1.025l0.781,3.119l-0.781,4.133v0.182v1.678h4.828C14.814,30.544,15.873,29.268,14.814,29.038z"/>
		<path d="M5.557,4.504c-0.05,0.167-0.102,0.334-0.131,0.509C5.39,5.23,5.371,5.456,5.371,5.685c0,2.25,1.822,4.073,4.073,4.073
			c2.248,0,4.072-1.822,4.072-4.073c0-0.45-0.09-0.875-0.226-1.28l0.828-1.141l-1.481-0.522l0.29-1.515l-1.81,0.518L10.284,0
			L8.739,1.612L7.541,0.224L6.978,2.056L5.056,1.427l0.725,1.62L4.382,3.439L5.557,4.504z"/>
	</g>
</g>
<g>
</g>
<g>
</g>
<g>
</g>
<g>
</g>
<g>
</g>
<g>
</g>
<g>
</g>
<g>
</g>
<g>
</g>
<g>
</g>
<g>
</g>
<g>
</g>
<g>
</g>
<g>
</g>
<g>
</g>
</svg>
