<?xml version="1.0" encoding="iso-8859-1"?>
<!-- Generator: Adobe Illustrator 16.0.0, SVG Export Plug-In . SVG Version: 6.00 Build 0)  -->
<!DOCTYPE svg PUBLIC "-//W3C//DTD SVG 1.1//EN" "http://www.w3.org/Graphics/SVG/1.1/DTD/svg11.dtd">
<svg version="1.1" id="Capa_1" xmlns="http://www.w3.org/2000/svg" xmlns:xlink="http://www.w3.org/1999/xlink" x="0px" y="0px"
	 width="369.808px" height="369.809px" viewBox="0 0 369.808 369.809" style="enable-background:new 0 0 369.808 369.809;"
	 xml:space="preserve">
<g>
	<g>
		<g>
			<path d="M328.171,87.982H201.296l34.182-46.036c4.078-5.497,2.933-13.265-2.566-17.345c-5.496-4.081-13.26-2.936-17.341,2.563
				l-32.929,44.344l-49.371-66.5c-4.083-5.498-11.847-6.645-17.348-2.563c-5.496,4.083-6.645,11.847-2.563,17.344l50.631,68.192
				H41.636c-20.255,0.001-36.732,16.478-36.732,36.736v183.675c0,19.987,16.049,36.28,35.932,36.712v19.535
				c0,2.851,2.32,5.17,5.174,5.17h30.429c2.852,0,5.173-2.319,5.173-5.17v-19.512h206.586v19.512c0,2.851,2.321,5.17,5.173,5.17
				h30.431c2.854,0,5.174-2.319,5.174-5.17v-19.535c19.881-0.43,35.93-16.725,35.93-36.712V124.717
				C364.904,104.459,348.427,87.982,328.171,87.982z M335.517,308.392c0,4.051-3.294,7.348-7.348,7.348H41.636
				c-4.052,0-7.346-3.297-7.346-7.348V124.717c0-4.051,3.294-7.348,7.346-7.348H328.17c4.054,0,7.348,3.296,7.348,7.348
				L335.517,308.392L335.517,308.392z"/>
			<path d="M230.777,136.276H67.954c-6.117,0-11.078,4.959-11.078,11.078V285.75c0,6.117,4.961,11.076,11.078,11.076h162.823
				c6.118,0,11.078-4.959,11.078-11.076V147.354C241.855,141.236,236.895,136.276,230.777,136.276z"/>
			<path d="M304.453,139.171h-35.124c-6.117,0-11.078,4.96-11.078,11.078v42.25c0,6.119,4.961,11.078,11.078,11.078h35.124
				c6.117,0,11.076-4.959,11.076-11.078v-42.25C315.529,144.131,310.57,139.171,304.453,139.171z"/>
			<circle cx="286.89" cy="234.823" r="18.268"/>
			<circle cx="286.89" cy="280.558" r="18.271"/>
		</g>
	</g>
</g>
<g>
</g>
<g>
</g>
<g>
</g>
<g>
</g>
<g>
</g>
<g>
</g>
<g>
</g>
<g>
</g>
<g>
</g>
<g>
</g>
<g>
</g>
<g>
</g>
<g>
</g>
<g>
</g>
<g>
</g>
</svg>
