<?xml version="1.0" encoding="iso-8859-1"?>
<!-- Generator: Adobe Illustrator 16.0.0, SVG Export Plug-In . SVG Version: 6.00 Build 0)  -->
<!DOCTYPE svg PUBLIC "-//W3C//DTD SVG 1.1//EN" "http://www.w3.org/Graphics/SVG/1.1/DTD/svg11.dtd">
<svg version="1.1" id="Capa_1" xmlns="http://www.w3.org/2000/svg" xmlns:xlink="http://www.w3.org/1999/xlink" x="0px" y="0px"
	 width="618.619px" height="618.618px" viewBox="0 0 618.619 618.618" style="enable-background:new 0 0 618.619 618.618;"
	 xml:space="preserve">
<g>
	<g>
		<defs>
			<rect id="SVGID_1_" x="62.67" y="0" width="493.279" height="618.619"/>
		</defs>
		<clipPath id="SVGID_2_">
			<use xlink:href="#SVGID_1_"  style="overflow:visible;"/>
		</clipPath>
		<path style="clip-path:url(#SVGID_2_);fill:#27241F;" d="M80.746,12.857l-0.095-0.029c0.587,30.449-15.663,69.449-17.796,100.992
			c-1.721,25.115,8.893,41.901,18.393,51.705c0.119,0.109,0.266,0.261,0.389,0.389c0.536,0.545,1.071,1.066,1.593,1.545
			c3.342,3.484,5.741,2.92,7.41,1.299c2.318-3.679,3.427-11.467,3.427-11.467l0.213-0.161c3-23.779,20.521-44.115,23.826-87.875
			c2.641-35.009-9.41-52.046-23.807-65.609C80.532-8.276,80.746,12.857,80.746,12.857L80.746,12.857z"/>
	</g>
	<path style="fill:#27241F;" d="M216.627,16.811h-1.261h-7.519H189.55h-3.612h-30.443c-11.681,0-8.855,13.681-8.855,13.681
		l-0.057,0.047c5.646,42.271-9.13,93.17-17.127,116.607v0.019c-3.437,10.993-1.74,16.203,0.223,18.72
		c4.503,3.769,10.775,6.234,17.881,6.234h30.96c2.73,0.057,13.098,1.157,13.098,14.174v416.075c0,8.969,7.262,16.251,16.231,16.251
		h8.789c8.979,0,16.246-7.282,16.246-16.251V33.042C232.874,24.063,225.606,16.811,216.627,16.811L216.627,16.811z"/>
	<path style="fill:#27241F;" d="M551.256,449.818l-16.213-285.255c-0.01-0.124-0.028-0.213-0.028-0.346
		c-3.11-54.777-22.205-64.068-31.345-65.338h-6.067C483.4,98.798,483.4,79.399,483.4,79.399h-0.019V32.615
		c0-8.959-7.263-16.241-16.241-16.241h-32.482c-8.979,0-16.24,7.281-16.24,16.241V79.39c0,0,0,19.408-14.222,19.479h-4.893
		c-20.934,0-26.859,31.008-28.557,47.908l-0.673,10.643c0,0.009,0,0.081,0,0.081l-18.792,290.859l-5.433,133.948v20.043
		c0,8.987,7.281,16.231,16.251,16.231h177.617c8.979,0,16.231-7.244,16.231-16.231v-33.81L551.256,449.818L551.256,449.818z"/>
</g>
<g>
</g>
<g>
</g>
<g>
</g>
<g>
</g>
<g>
</g>
<g>
</g>
<g>
</g>
<g>
</g>
<g>
</g>
<g>
</g>
<g>
</g>
<g>
</g>
<g>
</g>
<g>
</g>
<g>
</g>
</svg>
